<?xml version="1.0" encoding="UTF-8" standalone="yes"?>
<svg width="512" height="512" viewBox="0 0 512 512" fill="none" version="1.2" baseProfile="tiny-ps" xmlns="http://www.w3.org/2000/svg">
  <title>bimi-svg-tiny-12-ps</title>
  <rect width="512" height="512" fill="#0B1014"/>
  <path d="M166.727 370.435C132.106 382.672 94.7471 382.857 60.2111 371.199C52.5268 368.605 49.0548 359.959 52.0933 352.439L60.9477 330.526C64.1169 322.683 73.1298 319.114 81.2627 321.441C103.785 327.884 127.765 327.216 150.103 319.321C177.288 309.712 200.159 290.064 214.403 264.087C214.433 264.031 214.504 264.012 214.559 264.045C214.612 264.076 214.681 264.059 214.713 264.006L230.622 237.759C235.031 230.485 244.599 228.329 251.701 233.007L270.281 245.246C277.016 249.683 279.038 258.651 274.857 265.548L257.167 294.733C236.535 330.237 204.528 357.074 166.727 370.435Z" fill="#DA6E1E"/>
  <path d="M332.45 141.346C367.07 129.109 404.43 128.924 438.966 140.582C446.65 143.176 450.122 151.822 447.084 159.342L438.229 181.255C435.06 189.098 426.047 192.667 417.914 190.341C395.392 183.898 371.412 184.566 349.074 192.462C321.891 202.069 299.021 221.714 284.777 247.689C284.745 247.747 284.67 247.768 284.613 247.734C284.557 247.7 284.485 247.718 284.451 247.774L269.932 271.728C265.523 279.001 255.955 281.158 248.853 276.479L230.274 264.241C223.539 259.804 221.517 250.836 225.697 243.939L242.353 216.46C262.995 181.247 294.859 154.633 332.45 141.346Z" fill="#31B6C8"/>
  <g>
    <path d="M54.9565 145.539C54.9919 145.545 55.0281 145.54 55.0609 145.525C93.0307 129.068 135.458 127.574 174.419 141.345C212.072 154.654 243.977 181.335 264.616 216.633L269.371 224.477C269.407 224.536 269.484 224.554 269.542 224.516C269.599 224.478 269.677 224.496 269.713 224.555L293.616 263.99C293.649 264.045 293.72 264.062 293.774 264.03C293.831 263.997 293.904 264.017 293.935 264.074C308.18 290.05 331.05 309.696 358.233 319.304C367.493 322.577 377.035 324.606 386.639 325.403C391.292 325.789 395.737 323.628 398.638 319.97L414.237 300.306C420.486 292.429 432.918 294.27 436.616 303.619L441.584 316.182C441.586 316.185 441.59 316.187 441.593 316.185C441.597 316.184 441.601 316.186 441.602 316.189L461.621 365.731C461.664 365.838 461.615 365.959 461.509 366.004C461.467 366.022 461.425 366.039 461.383 366.058C461.349 366.072 461.332 366.112 461.346 366.147C461.366 366.197 461.324 366.25 461.27 366.242L461.087 366.215C461.054 366.21 461.021 366.214 460.99 366.228C423.015 382.694 380.577 384.192 341.609 370.418C303.912 357.094 271.975 330.366 251.338 295.005L246.659 287.287C246.623 287.228 246.546 287.211 246.489 287.249C246.431 287.287 246.354 287.27 246.318 287.211L222.412 247.772C222.379 247.718 222.308 247.7 222.253 247.733C222.196 247.767 222.123 247.747 222.091 247.689C207.847 221.714 184.978 202.068 157.795 192.46C148.528 189.185 138.978 187.154 129.366 186.358C124.714 185.973 120.27 188.134 117.369 191.791L101.754 211.476C95.5171 219.339 83.1068 217.501 79.4158 208.168L74.4382 195.582C74.4372 195.58 74.4344 195.578 74.432 195.579C74.4296 195.581 74.4268 195.579 74.4258 195.577L54.4059 146.029C54.3636 145.924 54.4122 145.805 54.5159 145.761C54.5556 145.743 54.5953 145.726 54.635 145.709C54.6723 145.693 54.6899 145.65 54.6747 145.612C54.6531 145.558 54.6981 145.501 54.7555 145.51L54.9565 145.539Z" fill="#D9D9D9"/>
  </g>
  <defs/>
</svg>