<?xml version="1.0"?><svg version="1.2" baseProfile="tiny-ps" viewBox="0 0 170 170" xmlns="http://www.w3.org/2000/svg" xmlns:xlink="http://www.w3.org/1999/xlink"><title>nocapcode</title><g><g fill="#fcfcfc" transform="matrix(.1 0 0 -.1 0 170)"><path d="M167 1163c-4-3-7-66-7-140V890h70v187l18 16 19 17h24c14 0 30-5 37-12l12-12V890h70v227l-23 21-23 22-31 6-32 6-33-11-33-12-3 11-4 10h-27c-15 0-31-3-34-7zm353-11-35-17-22-34-23-34v-78l15-29c18-35 59-65 102-75l33-7 34 12 35 11 31 35 30 35v107l-26 32c-51 60-110 74-174 42zm115-85c19-28 19-57-1-85l-16-23-35 3-36 3-20 27-20 27 13 30 12 30 27 9c34 11 58 5 76-21zm437 83-43-19-19-43c-25-54-25-72 0-123l20-40 28-17 29-17 29-1c16 0 60-1 97 0h68l-3 138-3 137-28 3-28 3-12-9-12-10-20 9c-32 12-57 10-103-11zm102-71 26-20v-66l-17-15c-10-8-26-18-36-21l-18-7-28 15c-30 15-41 33-41 66v20l25 24 24 25h19c11 0 31-9 46-21zm168 83-32-3 2-172 3-172h70l3 43 3 42 10-6c5-3 30-6 54-6h45l30 22c17 12 37 34 45 50l15 29v78l-23 34-22 34-39 19-39 19-38-10-38-10-8 6c-4 4-23 5-41 3zm152-83 26-20v-66l-20-18-20-18h-59l-15 13-16 12v87l22 15c30 21 50 20 82-5zm-681 61-32-19-17-32-16-32 5-51 4-50 37-33 36-33h106l22 16c27 18 28 40 4 53l-18 10-42-6-42-6-20 18-20 18v57l20 20 20 20h28c15 0 33-5 38-10l11-11 23 19 23 19-6 17-6 16-26 10c-15 6-43 10-63 10h-37l-32-20zm394-276c-4-4-7-22-7-39v-33l-43 5-43 5-37-15-37-16-20-33-20-33v-90l20-33 20-33 33-14 32-13 85 1 85 2v340l-30 3c-17 2-34 0-38-4zm-25-151 18-16v-76l-22-15c-12-9-32-16-44-16h-22l-23 18-22 19v63l18 20 18 20h60l19-17zM246 814c-70-25-106-76-106-150v-36l16-34 16-34 27-19c14-10 40-23 58-29l32-11 38 11 38 10 37 38 38 38v32l-25 6-25 6-29-31-29-31h-79l-21 23-22 23-6 30-6 30 27 32 27 32h82l27-26 27-26 21 11c12 7 21 17 21 24 0 20-61 73-99 86-40 13-36 13-85-5zm288-24-41-20-21-39-22-39v-67l19-35 18-35 39-23 39-23 44 4 43 5 20 20 20 19-14 22-13 21-43-6-42-6-25 16-25 16v70l21 21 21 21 48-6 47-6 13 15 12 15-6 15-6 16-35 14c-46 20-62 19-111-5zm240 0-41-20-21-39-22-39v-32c0-37 13-65 48-103l26-27 40-11 39-11 43 17 44 17 21 30 22 31 4 46 4 46-19 35-18 35-44 23c-54 27-74 28-126 2zm109-77c8-10 18-30 22-45l7-27-26-25-25-26h-23c-13 0-34 7-46 16l-22 15v69l20 20 20 20h57l16-17zm507 80c-23-9-60-45-76-75-28-54-13-118 40-167l26-24 52-4 53-4 33 20c38 25 40 35 7 57l-24 16-35-13-34-12-29 19-28 19 103 3 102 3v74l-20 32-19 32-30 16-30 15-38-1c-21 0-45-3-53-6zm95-83 18-20h-64l-64 1 24 19 23 20h45l18-20zM220 665v-15h30v30h-30v-15z"/></g><g fill="#d6d6d8" transform="matrix(.1 0 0 -.1 0 170)"><path d="m480 970-25-20 34-30 34-29 36-6 37-6 27 10 28 11-16 30-16 30h-67l-12 15c-16 20-30 19-60-5zM246 814c-70-25-106-76-106-150v-36l16-34 16-34 27-19c14-10 40-23 58-29l32-11 38 11 38 10 37 38 38 38v32l-25 6-25 6-29-31-29-31h-79l-21 23-22 23-6 30-6 30 27 32 27 32h58v80l-12-1c-7 0-31-7-52-15zm-26-149v-15h30v30h-30v-15z"/></g><g fill="#a0a1a9" transform="matrix(.1 0 0 -.1 0 170)"><path d="M246 814c-70-25-106-76-106-150v-36l16-34 16-34 27-19c14-10 40-23 58-29l32-11 38 11 38 10 37 38 38 38v32l-25 6-25 6-29-31-29-31h-79l-21 23-22 23-6 30-6 30 27 32 27 32h58v80l-12-1c-7 0-31-7-52-15zm-26-149v-15h30v30h-30v-15z"/></g><g fill="#2fb5c7" transform="matrix(.1 0 0 -.1 0 170)"><path d="M246 814c-70-25-106-76-106-150v-36l16-34 16-34 27-19c14-10 40-23 58-29l32-11 38 11 38 10 37 38 38 38v32l-25 6-25 6-29-31-29-31h-79l-21 23-22 23-6 30-6 30 27 32 27 32h48v80l-7-1c-5 0-26-7-47-15zm-26-149v-15h30v30h-30v-15z"/></g><g fill="#dd6d1c" transform="matrix(.1 0 0 -.1 0 170)"><path d="M245 814c-50-19-82-48-96-92l-11-34 5-43 4-43 21-30 22-30 32-15c18-8 43-18 56-22l22-6v81h-47l-21 23-22 23-6 30-6 30 27 32 27 32h48v80l-7-1c-5 0-26-7-48-15zm-25-149v-15h30v30h-30v-15z"/></g><g fill="#57372b" transform="matrix(.1 0 0 -.1 0 170)"><path d="M280 790v-40h20v80h-20v-40zm0-250v-40h20v80h-20v-40z"/></g></g></svg>